<svg width="18" height="19" viewBox="0 0 18 19" fill="none" xmlns="http://www.w3.org/2000/svg">
<g id="Nav &#226;&#134;&#146; List &#226;&#134;&#146; Item &#226;&#134;&#146; Link" clip-path="url(#clip0_0_11)">
<path id="Vector" d="M11.0255 11.8436C11.0255 11.8436 11.2414 11.6277 11.6733 11.1958C12.1051 10.764 12.3211 9.94047 12.3211 8.72536C12.3211 7.51026 11.8892 6.47085 11.0255 5.60714C10.1618 4.74343 9.12238 4.31157 7.90727 4.31157C6.69217 4.31157 5.65276 4.74343 4.78905 5.60714C3.92534 6.47085 3.49348 7.51026 3.49348 8.72536C3.49348 9.94047 3.92534 10.9799 4.78905 11.8436C5.65276 12.7073 6.69217 13.1392 7.90727 13.1392C9.12238 13.1392 10.1618 12.7073 11.0255 11.8436ZM17.3654 16.9224C17.3654 17.264 17.2406 17.5595 16.991 17.8091C16.7414 18.0587 16.4459 18.1835 16.1043 18.1835C15.7496 18.1835 15.4541 18.0587 15.2176 17.8091L11.8383 14.4396C10.6626 15.2541 9.35227 15.6613 7.90727 15.6613C6.96803 15.6613 6.06984 15.4791 5.21269 15.1145C4.35555 14.75 3.61663 14.2574 2.99594 13.6367C2.37525 13.016 1.88264 12.2771 1.51811 11.4199C1.15358 10.5628 0.971313 9.66461 0.971313 8.72536C0.971313 7.78612 1.15358 6.88792 1.51811 6.03078C1.88264 5.17364 2.37525 4.43472 2.99594 3.81403C3.61663 3.19334 4.35555 2.70073 5.21269 2.3362C6.06984 1.97167 6.96803 1.7894 7.90727 1.7894C8.84652 1.7894 9.74471 1.97167 10.6019 2.3362C11.459 2.70073 12.1979 3.19334 12.8186 3.81403C13.4393 4.43472 13.9319 5.17364 14.2964 6.03078C14.661 6.88792 14.8432 7.78612 14.8432 8.72536C14.8432 10.1704 14.436 11.4807 13.6216 12.6564L17.0009 16.0357C17.2439 16.2787 17.3654 16.5743 17.3654 16.9224Z" fill="white"/>
</g>
<defs>
<clipPath id="clip0_0_11">
<rect width="16.72" height="18" fill="white" transform="matrix(1 0 0 -1 0.80835 18.5283)"/>
</clipPath>
</defs>
</svg>
